<?xml version="1.0" encoding="utf-8"?>
<!-- Generator: Adobe Illustrator 23.0.0, SVG Export Plug-In . SVG Version: 6.00 Build 0)  -->
<svg version="1.1" id="star" xmlns="http://www.w3.org/2000/svg" xmlns:xlink="http://www.w3.org/1999/xlink" x="0px" y="0px"
	 viewBox="0 0 233 221.4" style="enable-background:new 0 0 233 221.4;" xml:space="preserve">
<style type="text/css">
	.star{fill:none;stroke:#000000;stroke-width:9;stroke-linecap:round;stroke-miterlimit:10;}
	.star:hover{stroke:#2ECC71}
</style>
<path class="star" d="M118.5,9.8l31.3,63.4c0.4,0.8,1.1,1.3,1.9,1.4l69.9,10.2c2.1,0.3,2.9,2.9,1.4,4.4l-50.6,49.3
	c-0.6,0.6-0.9,1.4-0.7,2.3l11.9,69.7c0.4,2.1-1.8,3.7-3.7,2.7l-62.6-32.9c-0.7-0.4-1.6-0.4-2.4,0l-62.6,32.9c-1.9,1-4.1-0.6-3.7-2.7
	l11.9-69.7c0.1-0.8-0.1-1.7-0.7-2.3L9.4,89.1c-1.5-1.5-0.7-4.1,1.4-4.4l69.9-10.2c0.8-0.1,1.6-0.6,1.9-1.4L114,9.8
	C114.9,7.9,117.6,7.9,118.5,9.8z"/>
</svg>
