<?xml version="1.0" encoding="utf-8"?>
<!-- Generator: Adobe Illustrator 22.1.0, SVG Export Plug-In . SVG Version: 6.00 Build 0)  -->
<svg version="1.1" xmlns="http://www.w3.org/2000/svg" xmlns:xlink="http://www.w3.org/1999/xlink" x="0px" y="0px"
	 viewBox="0 0 407.7 409" style="enable-background:new 0 0 407.7 409;" xml:space="preserve">
<style type="text/css">
	.st0{fill:#FFFFFF;stroke:#000000;stroke-width:13;stroke-miterlimit:10;}
	circle:hover{fill:red;}

</style>
<g id="target">
	<g id="_x33_">
		<circle class="st0" cx="181.3" cy="229.6" r="173.3"/>
	</g>
	<g id="_x32_">
		<circle class="st0" cx="180.6" cy="228.7" r="102.7"/>
	</g>
	<circle id="_x31_" class="st0" cx="181.1" cy="228.2" r="34.8"/>
	<g id="center">
		<circle cx="181.7" cy="227.6" r="6.5"/>
	</g>
</g>
<g id="arrow">
	<path class="st0" d="M181.1,228.2l112.3-112.3c0.2-0.2,0.4-0.6,0.4-0.9l-2.2-43.2c0-0.4,0.1-0.7,0.4-0.9l64-63.5
		c0.8-0.8,2.1-0.2,2.1,0.9l0.5,35.9c0,1.3,1.1,2.5,2.4,2.6l39.6,2.8c1,0.1,1.5,1.3,0.8,2.1l-60.9,64.8c-0.2,0.3-0.6,0.4-0.9,0.4
		l-44.9-0.9"/>
</g>
</svg>
