<?xml version="1.0" encoding="utf-8"?>
<!-- Generator: Adobe Illustrator 23.0.0, SVG Export Plug-In . SVG Version: 6.00 Build 0)  -->
<svg version="1.1" xmlns="http://www.w3.org/2000/svg" xmlns:xlink="http://www.w3.org/1999/xlink" x="0px" y="0px"
	 viewBox="0 0 470 470" style="enable-background:new 0 0 470 470;" xml:space="preserve">
<style type="text/css">
	.st0{fill:none;stroke:#000000;stroke-width:16;stroke-linecap:round;stroke-miterlimit:10;}
	.fill{fill:#FFFFFF;stroke:#000000;stroke-width:16;stroke-linecap:round;stroke-miterlimit:10;}
	.fill:hover{fill:#2ECC71}
</style>
<g id="base">
	<line class="st0" x1="9.8" y1="394.9" x2="459.5" y2="394.9"/>
</g>
<g id="bars">
	<path id="bar1" class="fill" d="M94.7,148.5L94.7,148.5c25.3,0,45.8,20.5,45.8,45.7v201H49v-201C49,169,69.5,148.5,94.7,148.5z"/>
	<g id="bar3">
		<path class="fill" d="M376.7,73.5L376.7,73.5c25.3,0,45.8,20.5,45.8,45.7v276H331v-276C331,94,351.5,73.5,376.7,73.5z"/>
	</g>
	<path id="bar2" class="fill" d="M236.5,114.8L236.5,114.8c25.3,0,45.8,20.5,45.8,45.7v234.8h-91.5V160.5
		C190.8,135.2,211.2,114.8,236.5,114.8z"/>
</g>
</svg>
