<?xml version="1.0" encoding="utf-8"?>
<!-- Generator: Adobe Illustrator 22.1.0, SVG Export Plug-In . SVG Version: 6.00 Build 0)  -->
<svg version="1.1" xmlns="http://www.w3.org/2000/svg" xmlns:xlink="http://www.w3.org/1999/xlink" x="0px" y="0px"
	 viewBox="0 0 455.3 455.3" style="enable-background:new 0 0 455.3 455.3;" xml:space="preserve">
<style type="text/css">
	.all:hover{fill: #2ECC71;}
</style>

<g class="all">
<g id="paper">
	<g id="_x33_">
		<g>
			<path d="M452.5,310.2c-2.1-2.6-5.6-3.7-8.8-2.6l-141.4,80L12.4,207.3c-3.8-2.4-8.7-1.3-11.1,2.5s-1.3,8.7,2.5,11.1l294.2,182.7
				c1.3,0.8,2.7,1.2,4.2,1.2c1.4,0,2.7-0.4,3.9-1l145.2-82.3C454.7,318.7,455.3,313.6,452.5,310.2z"/>
		</g>
	</g>
	<g id="_x32_">
		<g>
			<path d="M454.2,271.6c-2.2-3.8-7.1-5.2-11-3h0.5l-141,80L12.4,168.4c-3.8-2.4-8.7-1.3-11.1,2.5S0,179.6,3.7,182l294.2,182.6
				c1.3,0.8,2.7,1.2,4.2,1.2c1.4,0,2.7-0.4,3.9-1l145.2-82.2C455.1,280.3,456.4,275.4,454.2,271.6z"/>
		</g>
	</g>
	<g id="_x31_">
		<g>
			<path d="M454.1,232.6c-0.7-1.2-1.6-2.1-2.8-2.8h0.5L158,51.6c-2.5-1.4-5.5-1.4-8,0L4.5,129.2c-4,2-5.6,6.8-3.6,10.7
				c0.6,1.3,1.6,2.4,2.9,3.2l294.2,182.6c1.3,0.8,2.7,1.2,4.2,1.2c1.4,0,2.7-0.4,3.9-1l145.2-82.2
				C455.1,241.3,456.3,236.4,454.1,232.6z M302.6,309.8l-278.4-173l129.4-69.2l277.9,168.9L302.6,309.8z"/>
		</g>
	</g>
</g>
<g id="cash">
	<g>
		<g>
			<path d="M273.7,145.7c-2.8-3.4-7.8-4-11.2-1.2c-0.2,0.2-0.4,0.4-0.6,0.6l-8.6,8c-2.7-2.4-5.7-4.4-9-5.9c-4.3-2-9-2.8-13.7-2.2
				c-4.1,0.5-8,2.3-11.1,5c-3.2,2.7-5.3,6.5-6,10.6c-0.6,4.4-0.1,8.8,1.4,13c1.2,3.4,2.6,6.8,4.2,10.1l-16,14.3
				c-0.2-0.6-0.4-1.1-0.5-1.7c-0.6-3.9-0.2-7.8,1.2-11.4c0.7-1.7,1-3.5,1.1-5.4c-0.1-1.8-0.8-3.5-2.1-4.7c-1.4-1.8-3.6-2.9-5.8-3
				c-2.2-0.1-4.3,0.6-5.9,2.1c-2.7,2.5-4.4,5.9-5,9.5c-0.8,4.8-0.3,9.7,1.4,14.2c1.2,3.4,2.8,6.6,4.9,9.6l-9.2,8
				c-3.3,2.9-3.6,8-0.7,11.3c1.5,1.7,3.7,2.7,6.1,2.7l-0.2,0.2c2,0,3.9-0.7,5.4-2l9-8c3,2.8,6.4,5.2,10,7.2
				c9.2,5.2,20.8,3.8,28.5-3.6c2.7-2.3,4.6-5.5,5.4-9c0.8-3.9,0.6-8-0.4-11.8c-1.4-5.3-3.5-10.5-6.2-15.3v-0.5l13.3-11.9
				c0.4,2.2,0.4,4.4,0,6.6c-0.5,2.4-0.7,4.9-0.6,7.4c0.1,1.9,0.9,3.8,2.2,5.2c1.5,1.9,3.7,3.2,6.2,3.5c2.1,0.1,4.3-0.6,5.8-2.1
				c1.7-1.6,2.9-3.7,3.4-6c0.6-2.9,0.6-6,0-8.9c-0.7-3.8-1.9-7.4-3.8-10.8c-0.8-1.5-1.7-3-2.7-4.5l8.7-8
				C275.9,154.2,276.5,149.1,273.7,145.7z M224.5,210.8c-2.1,1.6-4.8,2-7.3,1.2c-1.6-0.4-3.1-1.1-4.5-2l13.5-11.8
				c0.6,1.5,1,3,1.4,4.6C228.1,205.8,226.9,208.9,224.5,210.8z M232.5,171.6c-0.4-1.2-0.6-2.5-0.7-3.8c-0.4-2.2,0.4-4.4,2.1-5.8
				c1.9-1.6,4.5-2,6.8-1.2c0.8,0.3,1.6,0.6,2.3,1L232.5,171.6z"/>
		</g>
	</g>
</g>
</g>
</svg>
